<?xml version="1.0" encoding="utf-8"?>
<!-- Generator: Adobe Illustrator 26.3.1, SVG Export Plug-In . SVG Version: 6.00 Build 0)  -->
<svg version="1.1" id="Layer_1" xmlns="http://www.w3.org/2000/svg" xmlns:xlink="http://www.w3.org/1999/xlink" x="0px" y="0px"
	 viewBox="0 0 620.28 125.47" style="enable-background:new 0 0 620.28 125.47;" xml:space="preserve">
<style type="text/css">
	.st0{fill:#EF3F5F;}
	.st1{font-family:'Nexa-Trial-Bold';}
	.st2{font-size:95.7254px;}
	.st3{fill:none;stroke:#EF3F5F;stroke-width:8;stroke-linecap:round;stroke-linejoin:round;stroke-miterlimit:10;}
	.st4{fill:none;stroke:#EF3F5F;stroke-width:8;stroke-miterlimit:10;}
</style>
<text transform="matrix(1 0 0 1 164.2572 86.4208)" class="st0 st1 st2">deja-moo</text>
<g>
	<path class="st3" d="M42.52,10.85c0,0,3.38,21.25,16.42,26.08c0,0,17.38-11.11,43.22,0c0,0,11.59-5.31,15.82-26.08"/>
	<g>
		<path class="st0" d="M90.97,98.06c0.72,1.08,1.53,2.39,2.31,3.8c1.71,3.14,2.36,5.23,2.6,6.48l-22.36,0.03l-9.85,0.01
			c-0.02-0.8,0.32-3.99,5.63-10.32H90.97 M95.07,90.06H65.7c-19.32,20.72-4.83,26.32-4.83,26.32l12.65-0.01l26.71-0.03
			C111.1,110.13,95.07,90.06,95.07,90.06L95.07,90.06z"/>
	</g>
	<path class="st4" d="M42.52,40.45"/>
	<path class="st3" d="M73.53,109.78c0,0-19.9-69.07-32.94-71.39H15.16c0,0,0.31,22.72,31.7,22.72"/>
	<path class="st3" d="M86.79,109.78c0,0,19.9-69.07,32.94-71.39h25.43c0,0-0.31,22.72-31.7,22.72"/>
</g>
</svg>
