<?xml version="1.0" encoding="utf-8"?>
<!-- Generator: Adobe Illustrator 26.3.1, SVG Export Plug-In . SVG Version: 6.00 Build 0)  -->
<svg version="1.1" id="Layer_1" xmlns="http://www.w3.org/2000/svg" xmlns:xlink="http://www.w3.org/1999/xlink" x="0px" y="0px"
	 viewBox="0 0 500 500" style="enable-background:new 0 0 500 500;" xml:space="preserve">
<style type="text/css">
	.st0{fill:none;stroke:#EF3F5F;stroke-width:24;stroke-linecap:round;stroke-linejoin:round;stroke-miterlimit:10;}
	.st1{fill:#EF3F5F;}
	.st2{fill:none;stroke:#EF3F5F;stroke-width:24;stroke-miterlimit:10;}
</style>
<g>
	<path class="st0" d="M119.46,72.56c0,0,11.73,73.75,56.99,90.51c0,0,60.32-38.55,150.01,0c0,0,40.23-18.44,54.9-90.51"/>
	<g>
		<path class="st1" d="M289.61,371.44c3.07,4.52,6.8,10.4,10.2,16.81c7.65,14.44,8.99,22.58,9.04,26.39l-81.81,0.09l-36.81,0.04
			c-0.47-0.62-0.86-1.4-1.04-2.34c-0.43-2.34-1.17-14.58,21.44-41H289.61 M301.84,347.44H199.91
			c-67.05,71.91-16.76,91.35-16.76,91.35l43.92-0.05l92.69-0.11C357.47,417.1,301.84,347.44,301.84,347.44L301.84,347.44z"/>
	</g>
	<path class="st2" d="M119.46,175.26"/>
	<path class="st0" d="M227.07,426.18c0,0-69.06-249.7-114.31-258.08H24.51c0,0,1.08,82.13,110.03,82.13"/>
	<path class="st0" d="M273.1,426.18c0,0,69.06-249.7,114.31-258.08h88.24c0,0-1.08,82.13-110.03,82.13"/>
</g>
</svg>
