<?xml version="1.0" encoding="utf-8"?>
<!-- Generator: Adobe Illustrator 26.3.1, SVG Export Plug-In . SVG Version: 6.00 Build 0)  -->
<svg version="1.1" id="Layer_1" xmlns="http://www.w3.org/2000/svg" xmlns:xlink="http://www.w3.org/1999/xlink" x="0px" y="0px"
	 viewBox="0 0 620.3 125.5" style="enable-background:new 0 0 620.3 125.5;" xml:space="preserve">
<style type="text/css">
	.st0{fill:#EF3F5F;}
	.st1{font-family:'Nexa-Trial-Bold';}
	.st2{font-size:95.7254px;}
	.st3{fill:none;stroke:#EF3F5F;stroke-width:8;stroke-linecap:round;stroke-linejoin:round;stroke-miterlimit:10;}
	.st4{fill:none;stroke:#EF3F5F;stroke-width:8;stroke-miterlimit:10;}
</style>
<text transform="matrix(1 0 0 1 155.8272 93.1493)" class="st0 st1 st2">deja-moo</text>
<g>
	<path class="st3" d="M42.5,17.6c0,0,3.4,21.2,16.4,26.1c0,0,17.4-11.1,43.2,0c0,0,11.6-5.3,15.8-26.1"/>
	<path class="st4" d="M42.5,47.2"/>
	<path class="st3" d="M73.5,116.5c0,0-19.9-69.1-32.9-71.4H15.2c0,0,0.3,22.7,31.7,22.7"/>
	<path class="st3" d="M86.8,116.5c0,0,19.9-69.1,32.9-71.4h25.4c0,0-0.3,22.7-31.7,22.7"/>
	<path class="st3" d="M66.1,89.2h29.5c0,0,12,14.4,10.9,27.3l-52,0C54.5,116.5,52,102.3,66.1,89.2z"/>
</g>
</svg>
